<svg width="49" height="49" viewBox="0 0 49 49" fill="none" xmlns="http://www.w3.org/2000/svg">
<path d="M44.5 26.5V18.5C44.5 8.5 40.5 4.5 30.5 4.5H18.5C8.5 4.5 4.5 8.5 4.5 18.5V30.5C4.5 40.5 8.5 44.5 18.5 44.5H26.5" stroke="white" stroke-width="3" stroke-linecap="round" stroke-linejoin="round"/>
<path d="M15.1602 29.48L19.9202 23.3C20.6002 22.42 21.8602 22.26 22.7402 22.94L26.4002 25.82C27.2802 26.5 28.5402 26.34 29.2202 25.48L33.8402 19.52" stroke="white" stroke-width="3" stroke-linecap="round" stroke-linejoin="round"/>
<path d="M39.4609 32.14L40.0209 33.28C40.3009 33.84 41.0009 34.36 41.6209 34.48L42.3809 34.6C44.6609 34.98 45.2009 36.66 43.5609 38.32L42.8609 39.02C42.4009 39.5 42.1409 40.42 42.2809 41.06L42.3809 41.48C43.0009 44.24 41.5409 45.3 39.1409 43.86L38.6209 43.56C38.0009 43.2 37.0009 43.2 36.3809 43.56L35.8609 43.86C33.4409 45.32 31.9809 44.24 32.6209 41.48L32.7209 41.06C32.8609 40.42 32.6009 39.5 32.1409 39.02L31.4409 38.32C29.8009 36.66 30.3409 34.98 32.6209 34.6L33.3809 34.48C33.9809 34.38 34.7009 33.84 34.9809 33.28L35.5409 32.14C36.6209 29.96 38.3809 29.96 39.4609 32.14Z" stroke="white" stroke-width="3" stroke-linecap="round" stroke-linejoin="round"/>
</svg>
