<svg width="49" height="48" viewBox="0 0 49 48" fill="none" xmlns="http://www.w3.org/2000/svg">
<path d="M44.3335 26V18C44.3335 8 40.3335 4 30.3335 4H18.3335C8.3335 4 4.3335 8 4.3335 18V30C4.3335 40 8.3335 44 18.3335 44H26.3335" stroke="black" stroke-width="3" stroke-linecap="round" stroke-linejoin="round"/>
<path d="M14.9937 28.98L19.7537 22.8C20.4337 21.92 21.6937 21.76 22.5737 22.44L26.2337 25.32C27.1137 26 28.3736 25.84 29.0536 24.98L33.6737 19.02" stroke="black" stroke-width="3" stroke-linecap="round" stroke-linejoin="round"/>
<path d="M39.2944 31.64L39.8544 32.78C40.1344 33.34 40.8344 33.86 41.4544 33.98L42.2144 34.1C44.4944 34.48 45.0344 36.16 43.3944 37.82L42.6944 38.52C42.2344 39 41.9744 39.92 42.1144 40.56L42.2144 40.98C42.8344 43.74 41.3744 44.8 38.9744 43.36L38.4544 43.06C37.8344 42.7 36.8344 42.7 36.2144 43.06L35.6944 43.36C33.2744 44.82 31.8144 43.74 32.4544 40.98L32.5544 40.56C32.6944 39.92 32.4344 39 31.9744 38.52L31.2744 37.82C29.6344 36.16 30.1744 34.48 32.4544 34.1L33.2144 33.98C33.8144 33.88 34.5344 33.34 34.8144 32.78L35.3744 31.64C36.4544 29.46 38.2144 29.46 39.2944 31.64Z" stroke="black" stroke-width="3" stroke-linecap="round" stroke-linejoin="round"/>
</svg>
