<svg width="49" height="49" viewBox="0 0 49 49" fill="none" xmlns="http://www.w3.org/2000/svg">
<path d="M17.5 38.4399H16.5C8.5 38.4399 4.5 36.4399 4.5 26.4399V16.4399C4.5 8.43994 8.5 4.43994 16.5 4.43994H32.5C40.5 4.43994 44.5 8.43994 44.5 16.4399V26.4399C44.5 34.4399 40.5 38.4399 32.5 38.4399H31.5C30.88 38.4399 30.28 38.74 29.9 39.24L26.9 43.24C25.58 45 23.42 45 22.1 43.24L19.1 39.24C18.78 38.8 18.06 38.4399 17.5 38.4399Z" stroke="white" stroke-width="3" stroke-miterlimit="10" stroke-linecap="round" stroke-linejoin="round"/>
<path d="M16.5 17.9L12.5 21.9L16.5 25.9" stroke="white" stroke-width="3" stroke-miterlimit="10" stroke-linecap="round" stroke-linejoin="round"/>
<path d="M32.5 17.9L36.5 21.9L32.5 25.9" stroke="white" stroke-width="3" stroke-miterlimit="10" stroke-linecap="round" stroke-linejoin="round"/>
<path d="M26.5 17.24L22.5 26.5601" stroke="white" stroke-width="3" stroke-miterlimit="10" stroke-linecap="round" stroke-linejoin="round"/>
</svg>
