<svg width="49" height="49" viewBox="0 0 49 49" fill="none" xmlns="http://www.w3.org/2000/svg">
<path d="M18.5 20.5C20.7091 20.5 22.5 18.7091 22.5 16.5C22.5 14.2909 20.7091 12.5 18.5 12.5C16.2909 12.5 14.5 14.2909 14.5 16.5C14.5 18.7091 16.2909 20.5 18.5 20.5Z" stroke="#0F1035" stroke-width="3" stroke-linecap="round" stroke-linejoin="round"/>
<path d="M26.5 4.5H18.5C8.5 4.5 4.5 8.5 4.5 18.5V30.5C4.5 40.5 8.5 44.5 18.5 44.5H30.5C40.5 44.5 44.5 40.5 44.5 30.5V20.5" stroke="#0F1035" stroke-width="3" stroke-linecap="round" stroke-linejoin="round"/>
<path d="M38.7798 5.68L31.5198 12.94C31.2398 13.22 30.9598 13.76 30.9198 14.16L30.5198 16.94C30.3798 17.94 31.0798 18.64 32.0798 18.5L34.8598 18.1C35.2398 18.04 35.7998 17.78 36.0798 17.5L43.3398 10.24C44.5998 8.98 45.1798 7.54 43.3398 5.7C41.4798 3.82 40.0398 4.42 38.7798 5.68Z" stroke="#0F1035" stroke-width="3" stroke-miterlimit="10" stroke-linecap="round" stroke-linejoin="round"/>
<path d="M37.7402 6.72C38.3602 8.92 40.0802 10.64 42.2802 11.26" stroke="#0F1035" stroke-width="3" stroke-miterlimit="10" stroke-linecap="round" stroke-linejoin="round"/>
<path d="M5.83984 38.4L15.6998 31.78C17.2798 30.72 19.5598 30.84 20.9798 32.06L21.6398 32.64C23.1998 33.98 25.7198 33.98 27.2798 32.64L35.5998 25.5C37.1598 24.16 39.6798 24.16 41.2398 25.5L44.4998 28.3" stroke="#0F1035" stroke-width="3" stroke-linecap="round" stroke-linejoin="round"/>
</svg>
