<svg width="49" height="48" viewBox="0 0 49 48" fill="none" xmlns="http://www.w3.org/2000/svg">
<path d="M43.8395 28.6L43.0395 38.6C42.7395 41.66 42.4995 44 37.0795 44H11.9195C6.49953 44 6.25953 41.66 5.95953 38.6L5.15953 28.6C4.99953 26.94 5.51953 25.4 6.45953 24.22C6.47953 24.2 6.47953 24.2 6.49953 24.18C7.59953 22.84 9.25953 22 11.1195 22H37.8795C39.7395 22 41.3795 22.84 42.4595 24.14C42.4795 24.16 42.4995 24.18 42.4995 24.2C43.4795 25.38 44.0195 26.92 43.8395 28.6Z" stroke="white" stroke-width="3" stroke-miterlimit="10"/>
<path d="M7.5 22.8601V12.5601C7.5 5.76006 9.2 4.06006 16 4.06006H18.54C21.08 4.06006 21.66 4.82006 22.62 6.10006L25.16 9.50006C25.8 10.3401 26.18 10.8601 27.88 10.8601H32.98C39.78 10.8601 41.48 12.5601 41.48 19.3601V22.9401" stroke="white" stroke-width="3" stroke-miterlimit="10" stroke-linecap="round" stroke-linejoin="round"/>
<path d="M19.3604 34H29.6404" stroke="white" stroke-width="3" stroke-miterlimit="10" stroke-linecap="round" stroke-linejoin="round"/>
</svg>
