<svg width="65" height="66" viewBox="0 0 65 66" fill="none" xmlns="http://www.w3.org/2000/svg">
<path d="M48.6959 29.7229V40.5563C48.6959 41.2604 48.6688 41.9375 48.5876 42.5875C47.9647 49.9 43.6584 53.5291 35.723 53.5291H34.6397C33.9626 53.5291 33.3126 53.8541 32.9063 54.3958L29.6564 58.7292C28.2209 60.6521 25.8917 60.6521 24.4563 58.7292L21.2063 54.3958C20.8542 53.9354 20.0688 53.5291 19.473 53.5291H18.3897C9.7501 53.5291 5.41675 51.3896 5.41675 40.5563V29.7229C5.41675 21.7875 9.07302 17.4813 16.3584 16.8584C17.0084 16.7771 17.6855 16.75 18.3897 16.75H35.723C44.3626 16.75 48.6959 21.0834 48.6959 29.7229Z" stroke="#0523E8" stroke-width="3.5" stroke-miterlimit="10" stroke-linecap="round" stroke-linejoin="round"/>
<path d="M59.5292 18.8896V29.723C59.5292 37.6855 55.873 41.9646 48.5876 42.5875C48.6688 41.9375 48.6959 41.2605 48.6959 40.5563V29.723C48.6959 21.0834 44.3626 16.75 35.723 16.75H18.3896C17.6855 16.75 17.0084 16.7771 16.3584 16.8584C16.9813 9.57296 21.2876 5.91669 29.223 5.91669H46.5563C55.1959 5.91669 59.5292 10.25 59.5292 18.8896Z" stroke="#0523E8" stroke-width="3.5" stroke-miterlimit="10" stroke-linecap="round" stroke-linejoin="round"/>
<path d="M36.5502 36.3854H36.5746" stroke="#0523E8" stroke-width="3.5" stroke-linecap="round" stroke-linejoin="round"/>
<path d="M27.0712 36.3854H27.0956" stroke="#0523E8" stroke-width="3.5" stroke-linecap="round" stroke-linejoin="round"/>
<path d="M17.592 36.3854H17.6164" stroke="#0523E8" stroke-width="3.5" stroke-linecap="round" stroke-linejoin="round"/>
</svg>
