<svg width="48" height="49" viewBox="0 0 48 49" fill="none" xmlns="http://www.w3.org/2000/svg">
<path d="M18 44.5H30C40 44.5 44 40.5 44 30.5V18.5C44 8.5 40 4.5 30 4.5H18C8 4.5 4 8.5 4 18.5V30.5C4 40.5 8 44.5 18 44.5Z" stroke="white" stroke-width="3" stroke-linecap="round" stroke-linejoin="round"/>
<path d="M31 20C32.6569 20 34 18.6569 34 17C34 15.3431 32.6569 14 31 14C29.3431 14 28 15.3431 28 17C28 18.6569 29.3431 20 31 20Z" stroke="white" stroke-width="3" stroke-miterlimit="10" stroke-linecap="round" stroke-linejoin="round"/>
<path d="M17 20C18.6569 20 20 18.6569 20 17C20 15.3431 18.6569 14 17 14C15.3431 14 14 15.3431 14 17C14 18.6569 15.3431 20 17 20Z" stroke="white" stroke-width="3" stroke-miterlimit="10" stroke-linecap="round" stroke-linejoin="round"/>
<path d="M16.8 27.1H31.2C32.2 27.1 33 27.9 33 28.9C33 33.88 28.98 37.9 24 37.9C19.02 37.9 15 33.88 15 28.9C15 27.9 15.8 27.1 16.8 27.1Z" stroke="white" stroke-width="3" stroke-miterlimit="10" stroke-linecap="round" stroke-linejoin="round"/>
</svg>
